<svg width="32" height="32" viewBox="0 0 32 32" fill="none" xmlns="http://www.w3.org/2000/svg">
<g clip-path="url(#clip0_464_35387)">
<path fill-rule="evenodd" clip-rule="evenodd" d="M21.4079 21.7102C21.0989 21.6035 20.796 21.4795 20.5008 21.3387C19.8709 21.1672 19.2 21.4117 18.5417 21.3387C18.2954 21.7112 17.9925 22.0423 17.6441 22.32C17.5977 22.3527 17.5493 22.3824 17.4992 22.4089C17.3645 22.5023 17.2123 22.5671 17.052 22.5995C16.9544 22.5582 17.0803 22.4947 17.2662 22.4375C17.3103 22.3486 17.3512 22.2565 17.389 22.1612C18.0189 20.4875 17.5843 17.823 18.0725 16.9718C18.548 16.7622 17.4236 16.5717 18.5575 16.7114C18.8977 16.7527 18.9229 16.9115 19.4331 16.8702C19.8646 16.8353 19.8268 16.7241 20.3402 16.8099C20.378 17.0989 20.2299 17.1783 20.104 17.4038C20.6331 18.2104 22.1953 19.1092 22.4284 20.3764C22.5418 20.9861 22.2142 21.4943 21.4079 21.7102Z" fill="#0064B0"/>
<mask id="mask0_464_35387" style="mask-type:luminance" maskUnits="userSpaceOnUse" x="5" y="4" width="12" height="13">
<path d="M16.2802 8.18103L16.529 8.81621C14.6393 10.4994 13.3007 13.2402 13.8897 15.7269C13.6944 15.9238 13.981 15.8126 13.6566 15.7809C12.2928 13.5578 9.92115 14.1707 9.27549 16.3112C7.77942 16.6511 4.92273 14.9107 6.20147 13.2815L9.72903 10.6868C10.296 10.0865 11.8393 8.32712 12.3558 7.91108L12.7967 7.50139C12.4594 6.856 12.3633 6.10986 12.5259 5.39897C12.6897 5.5006 12.5889 5.41803 12.7212 5.57364C12.7401 5.59905 12.8503 5.77372 12.8849 5.82454L13.4739 6.79318C13.6566 7.11077 13.6062 7.11077 14.003 7.08854C13.908 6.11831 13.9451 5.13953 14.1133 4.17944C14.3275 4.87813 14.781 5.49742 15.14 6.18976C15.3542 6.59627 16.0503 7.97142 16.2802 8.19373" fill="white"/>
</mask>
<g mask="url(#mask0_464_35387)">
<path d="M16.5292 4.16675H4.92285V16.6384H16.5292V4.16675Z" fill="url(#paint0_linear_464_35387)"/>
</g>
<mask id="mask1_464_35387" style="mask-type:luminance" maskUnits="userSpaceOnUse" x="15" y="5" width="11" height="12">
<path d="M15.9024 8.66058L15.6536 9.29575C17.2284 10.6582 18.3717 13.8944 18.2929 16.2064C18.4882 16.4033 18.041 16.3366 18.3654 16.3049C19.4835 14.682 21.537 16.4796 22.9071 16.7908C24.4032 17.1306 26.9197 15.838 25.6378 14.2088L22.4536 11.1663C21.8866 10.5661 20.3433 8.80668 19.8268 8.39064L19.3858 7.98095C19.6553 7.61803 19.8502 7.20448 19.9591 6.76459C20.0347 6.22152 19.8016 5.51648 19.2977 6.3041L18.7087 7.27273C18.526 7.59032 18.5764 7.59031 18.1795 7.56808C18.2205 7.27273 18.904 6.56134 18.6646 5.7642C18.5481 5.29099 17.6662 5.7642 17.474 6.21517C17.4583 6.24693 16.0378 8.54308 15.8992 8.67329" fill="white"/>
</mask>
<g mask="url(#mask1_464_35387)">
<path d="M26.9197 5.27515H15.6536V17.1148H26.9197V5.27515Z" fill="url(#paint1_linear_464_35387)"/>
</g>
<mask id="mask2_464_35387" style="mask-type:luminance" maskUnits="userSpaceOnUse" x="10" y="9" width="9" height="12">
<path d="M17.707 20.5796C17.707 20.478 18.0976 18.2041 18.359 16.9591C18.5039 16.2827 18.3244 15.5046 18.1826 14.6058C17.8677 12.5796 16.9039 10.3533 15.6629 9.28308L13.2251 12.9925C12.7968 13.6467 12.4346 14.1739 12.022 14.8186C11.7259 15.2855 10.9606 16.3271 10.8188 16.7845C11.4866 16.6003 11.9023 16.1048 13.2251 16.1493C14.485 16.1938 15.4299 16.8416 15.8425 17.9818C16.0126 18.4581 16.2267 18.3883 16.5417 18.7662C16.9417 19.2489 16.7055 19.4935 16.9732 19.8111L17.707 20.5796Z" fill="white"/>
</mask>
<g mask="url(#mask2_464_35387)">
<path d="M18.5038 9.28308H10.8093V20.5765H18.5038V9.28308Z" fill="url(#paint2_linear_464_35387)"/>
</g>
<mask id="mask3_464_35387" style="mask-type:luminance" maskUnits="userSpaceOnUse" x="8" y="17" width="10" height="9">
<path d="M15.8457 25.5149C16.0347 25.0036 16.9733 22.7582 17.2568 22.4375C16.3938 22.6915 15.4741 21.9293 14.8473 21.6086C13.7103 21.0242 13.3135 21.291 12.2615 21.6625C12.2188 21.2754 12.2673 20.8835 12.403 20.5187C12.5387 20.154 12.7579 19.8266 13.0426 19.5633L13.6127 19.2267L13.6662 19.1917C13.685 19.1804 13.7029 19.1677 13.7198 19.1536C13.7009 19.1536 13.6725 19.0996 13.6631 19.1155L13.2347 18.871C12.6048 18.4708 13.0048 18.1183 14.1796 18.2358C13.8646 17.1496 11.8615 17.0639 10.8442 17.4291C10.1827 17.6673 10.0158 17.8896 9.67566 18.4676C9.43629 18.8678 8.9859 19.4807 8.86621 19.9476L14.1292 24.0762C14.356 24.2509 15.7292 25.2386 15.852 25.518" fill="white"/>
</mask>
<g mask="url(#mask3_464_35387)">
<path d="M17.2693 17.0607H8.85986V25.5149H17.2693V17.0607Z" fill="url(#paint3_linear_464_35387)"/>
</g>
<path fill-rule="evenodd" clip-rule="evenodd" d="M15.9873 8.79714C15.9873 8.77173 16.0597 8.63517 16.0629 8.63199C16.1227 8.42238 16.1038 8.54307 16.0251 8.49543C14.7652 8.72092 13.8204 8.5399 12.6393 8.3811C12.6235 9.22588 14.4062 10.3501 15.6755 9.15601C15.7794 9.05755 15.9275 8.83843 15.9904 8.79714" fill="white"/>
<mask id="mask4_464_35387" style="mask-type:luminance" maskUnits="userSpaceOnUse" x="20" y="8" width="4" height="2">
<path d="M20.485 8.79714C20.485 8.77173 20.4126 8.63517 20.4094 8.63199C20.3496 8.42238 20.3653 8.54307 20.4472 8.49543C21.7071 8.72092 22.652 8.5399 23.8331 8.3811C23.8488 9.22588 22.0661 10.3501 20.7968 9.15601C20.6929 9.05755 20.5449 8.83843 20.4819 8.79714" fill="white"/>
</mask>
<g mask="url(#mask4_464_35387)">
<path d="M23.8456 8.3811H20.3464V10.3501H23.8456V8.3811Z" fill="url(#paint4_linear_464_35387)"/>
</g>
<mask id="mask5_464_35387" style="mask-type:luminance" maskUnits="userSpaceOnUse" x="16" y="3" width="16" height="29">
<path d="M26.5198 4.04288C29.8048 6.95514 31.767 10.8805 31.8741 16.0349C32.0032 22.5359 25.8174 30.8091 18.0788 31.8857L16.9922 30.0373L16.6772 29.5355C19.2799 29.4192 21.7965 28.5615 23.9355 27.0619C26.0744 25.5622 27.748 23.482 28.7623 21.0623C29.4808 19.4802 29.8484 17.7591 29.8395 16.0191V15.9714C29.8395 15.8666 29.8395 15.7618 29.8395 15.6538C29.839 13.2081 29.1979 10.8058 27.9812 8.69001C26.7645 6.57422 25.0152 4.81994 22.9103 3.60461C24.3812 2.95038 25.3418 3.00119 26.5135 4.0397" fill="white"/>
</mask>
<g mask="url(#mask5_464_35387)">
<path d="M32 2.95355H16.6677V31.8857H32V2.95355Z" fill="url(#paint5_linear_464_35387)"/>
</g>
<mask id="mask6_464_35387" style="mask-type:luminance" maskUnits="userSpaceOnUse" x="-1" y="0" width="23" height="32">
<path d="M15.8867 1.11197e-05C17.9098 -0.0023984 19.9146 0.386801 21.7922 1.14649C20.1443 1.85132 18.3502 2.13811 16.567 1.98175C16.3402 1.98175 16.1134 1.95952 15.8867 1.95952C13.1597 1.95928 10.4925 2.76536 8.21517 4.278C5.93787 5.79063 4.15045 7.94341 3.07413 10.4699C1.99781 12.9964 1.67985 15.7857 2.1596 18.4925C2.63934 21.1993 3.89573 23.7049 5.77327 25.6991C8.01894 28.0842 9.38273 26.1596 8.74966 24.4288C8.19847 23.5014 6.54493 23.838 5.99375 24.6257C5.67879 22.5169 7.52761 21.2402 9.9843 22.9774C10.841 23.584 12.2646 26.3787 10.1922 28.0746C13.1875 29.1544 14.1166 30.4248 14.9481 31.9682C14.6093 31.9921 14.269 31.9761 13.9339 31.9206C9.91922 31.4209 6.2448 29.3957 3.66001 26.2582C1.07521 23.1206 -0.225259 19.107 0.0238196 15.0359C0.272898 10.9647 2.05277 7.14274 5.00042 4.34934C7.94808 1.55594 11.8415 0.00155441 15.8867 0.00319008" fill="white"/>
</mask>
<g mask="url(#mask6_464_35387)">
<path d="M21.7921 0H0V32H21.7921V0Z" fill="url(#paint6_linear_464_35387)"/>
</g>
</g>
<defs>
<linearGradient id="paint0_linear_464_35387" x1="12.7717" y1="5.48791" x2="6.45011" y2="20.4183" gradientUnits="userSpaceOnUse">
<stop stop-color="#E8AD81"/>
<stop offset="1" stop-color="#E87D24"/>
</linearGradient>
<linearGradient id="paint1_linear_464_35387" x1="21.9685" y1="6.1104" x2="20.1149" y2="19.6831" gradientUnits="userSpaceOnUse">
<stop stop-color="#00A9A0"/>
<stop offset="1" stop-color="#0065B0"/>
</linearGradient>
<linearGradient id="paint2_linear_464_35387" x1="13.7574" y1="16.4732" x2="16.71" y2="11.4895" gradientUnits="userSpaceOnUse">
<stop stop-color="#77A841"/>
<stop offset="1" stop-color="#CBE2A5"/>
</linearGradient>
<linearGradient id="paint3_linear_464_35387" x1="12.9544" y1="21.472" x2="16.2798" y2="15.9322" gradientUnits="userSpaceOnUse">
<stop stop-color="#7CA930"/>
<stop offset="1" stop-color="#E0ECC3"/>
</linearGradient>
<linearGradient id="paint4_linear_464_35387" x1="22.5228" y1="6.18658" x2="20.6692" y2="19.7593" gradientUnits="userSpaceOnUse">
<stop stop-color="#00A89F"/>
<stop offset="1" stop-color="#191D5B"/>
</linearGradient>
<linearGradient id="paint5_linear_464_35387" x1="19.1055" y1="31.2251" x2="28.3981" y2="7.09231" gradientUnits="userSpaceOnUse">
<stop stop-color="#7FAB47"/>
<stop offset="1" stop-color="#A9D6A6"/>
</linearGradient>
<linearGradient id="paint6_linear_464_35387" x1="16.8315" y1="-0.466852" x2="6.64553" y2="27.3312" gradientUnits="userSpaceOnUse">
<stop stop-color="#00AAA0"/>
<stop offset="1" stop-color="#0065B0"/>
</linearGradient>
<clipPath id="clip0_464_35387">
<rect width="32" height="32" fill="white"/>
</clipPath>
</defs>
</svg>
