<svg width="20" height="21" viewBox="0 0 20 21" fill="none" xmlns="http://www.w3.org/2000/svg">
<g id="mdi:cog-outline">
<path id="Vector" d="M9.99995 7.16666C10.884 7.16666 11.7319 7.51785 12.357 8.14297C12.9821 8.76809 13.3333 9.61593 13.3333 10.5C13.3333 11.384 12.9821 12.2319 12.357 12.857C11.7319 13.4821 10.884 13.8333 9.99995 13.8333C9.1159 13.8333 8.26805 13.4821 7.64293 12.857C7.01781 12.2319 6.66662 11.384 6.66662 10.5C6.66662 9.61593 7.01781 8.76809 7.64293 8.14297C8.26805 7.51785 9.1159 7.16666 9.99995 7.16666ZM9.99995 8.83332C9.55792 8.83332 9.134 9.00892 8.82144 9.32148C8.50888 9.63404 8.33328 10.058 8.33328 10.5C8.33328 10.942 8.50888 11.3659 8.82144 11.6785C9.134 11.9911 9.55792 12.1667 9.99995 12.1667C10.442 12.1667 10.8659 11.9911 11.1785 11.6785C11.491 11.3659 11.6666 10.942 11.6666 10.5C11.6666 10.058 11.491 9.63404 11.1785 9.32148C10.8659 9.00892 10.442 8.83332 9.99995 8.83332ZM8.33328 18.8333C8.12495 18.8333 7.94995 18.6833 7.91662 18.4833L7.60828 16.275C7.08328 16.0667 6.63328 15.7833 6.19995 15.45L4.12495 16.2917C3.94162 16.3583 3.71662 16.2917 3.61662 16.1083L1.94995 13.225C1.89895 13.1391 1.88097 13.0376 1.89937 12.9395C1.91778 12.8413 1.97131 12.7532 2.04995 12.6917L3.80828 11.3083L3.74995 10.5L3.80828 9.66666L2.04995 8.30832C1.97131 8.24677 1.91778 8.15867 1.89937 8.06051C1.88097 7.96236 1.89895 7.86085 1.94995 7.77499L3.61662 4.89166C3.71662 4.70832 3.94162 4.63332 4.12495 4.70832L6.19995 5.54166C6.63328 5.21666 7.08328 4.93332 7.60828 4.72499L7.91662 2.51666C7.94995 2.31666 8.12495 2.16666 8.33328 2.16666H11.6666C11.875 2.16666 12.05 2.31666 12.0833 2.51666L12.3916 4.72499C12.9166 4.93332 13.3666 5.21666 13.8 5.54166L15.875 4.70832C16.0583 4.63332 16.2833 4.70832 16.3833 4.89166L18.05 7.77499C18.1583 7.95832 18.1083 8.18332 17.95 8.30832L16.1916 9.66666L16.25 10.5L16.1916 11.3333L17.95 12.6917C18.1083 12.8167 18.1583 13.0417 18.05 13.225L16.3833 16.1083C16.2833 16.2917 16.0583 16.3667 15.875 16.2917L13.8 15.4583C13.3666 15.7833 12.9166 16.0667 12.3916 16.275L12.0833 18.4833C12.05 18.6833 11.875 18.8333 11.6666 18.8333H8.33328ZM9.37495 3.83332L9.06662 6.00832C8.06662 6.21666 7.18328 6.74999 6.54162 7.49166L4.53328 6.62499L3.90828 7.70832L5.66662 8.99999C5.33328 9.97221 5.33328 11.0278 5.66662 12L3.89995 13.3L4.52495 14.3833L6.54995 13.5167C7.19162 14.25 8.06662 14.7833 9.05828 14.9833L9.36662 17.1667H10.6333L10.9416 14.9917C11.9333 14.7833 12.8083 14.25 13.45 13.5167L15.475 14.3833L16.1 13.3L14.3333 12.0083C14.6666 11.0333 14.6666 9.97499 14.3333 8.99999L16.0916 7.70832L15.4666 6.62499L13.4583 7.49166C12.8035 6.73359 11.9152 6.21472 10.9333 6.01666L10.625 3.83332H9.37495Z" fill="#17B9DA"/>
</g>
</svg>
