<svg width="16" height="16" viewBox="0 0 16 16" fill="none" xmlns="http://www.w3.org/2000/svg">
<g id="prime:ellipsis-h">
<path id="Vector" d="M8.00016 9.16665C8.64449 9.16665 9.16683 8.64431 9.16683 7.99998C9.16683 7.35565 8.64449 6.83331 8.00016 6.83331C7.35583 6.83331 6.8335 7.35565 6.8335 7.99998C6.8335 8.64431 7.35583 9.16665 8.00016 9.16665Z" fill="#222222"/>
<path id="Vector_2" d="M12.6667 9.16665C13.311 9.16665 13.8333 8.64431 13.8333 7.99998C13.8333 7.35565 13.311 6.83331 12.6667 6.83331C12.0223 6.83331 11.5 7.35565 11.5 7.99998C11.5 8.64431 12.0223 9.16665 12.6667 9.16665Z" fill="#222222"/>
<path id="Vector_3" d="M3.33317 9.16665C3.9775 9.16665 4.49984 8.64431 4.49984 7.99998C4.49984 7.35565 3.9775 6.83331 3.33317 6.83331C2.68884 6.83331 2.1665 7.35565 2.1665 7.99998C2.1665 8.64431 2.68884 9.16665 3.33317 9.16665Z" fill="#222222"/>
</g>
</svg>
